<svg xmlns="http://www.w3.org/2000/svg" viewBox="0 0 64 64" fill="none">
  <defs>
    <linearGradient id="carrotBody" x1="22" y1="20" x2="52" y2="48" gradientUnits="userSpaceOnUse">
      <stop offset="0%" stop-color="#FFA726"/>
      <stop offset="50%" stop-color="#FB8C00"/>
      <stop offset="100%" stop-color="#E65100"/>
    </linearGradient>
    <linearGradient id="vegLeaf" x1="36" y1="8" x2="54" y2="24" gradientUnits="userSpaceOnUse">
      <stop offset="0%" stop-color="#81C784"/>
      <stop offset="100%" stop-color="#2E7D32"/>
    </linearGradient>
    <filter id="vegShadow" x="8" y="10" width="48" height="48" filterUnits="userSpaceOnUse">
      <feDropShadow dx="0" dy="4" stdDeviation="3" flood-color="#BF360C" flood-opacity="0.3"/>
    </filter>
  </defs>

  <!-- Leafy Top Greens -->
  <path d="M42 20C48 12 55 10 55 10M38 23C44 15 51 12 51 12M34 27C40 19 46 14 46 14" stroke="url(#vegLeaf)" stroke-width="4" stroke-linecap="round"/>

  <g filter="url(#vegShadow)">
    <!-- 3D Carrot Body -->
    <path d="M42 21C47 26 44 33 35 42L16 55C14 56 11 54 13 51L27 32C35 23 40 19 42 21Z" fill="url(#carrotBody)"/>
  </g>

  <!-- 3D Ridges & Highlights -->
  <path d="M36 27C34 29 32 30 32 30" stroke="#FFE0B2" stroke-width="2" stroke-linecap="round" opacity="0.8"/>
  <path d="M30 35C28 37 26 38 26 38" stroke="#FFE0B2" stroke-width="2" stroke-linecap="round" opacity="0.8"/>
  <path d="M24 43C22 45 20 46 20 46" stroke="#FFE0B2" stroke-width="1.8" stroke-linecap="round" opacity="0.8"/>

  <!-- Glossy Highlight -->
  <path d="M38 23C30 31 22 42 16 51" stroke="#FFFFFF" stroke-width="2" stroke-linecap="round" opacity="0.35"/>
</svg>
